<?xml version="1.0" standalone="no"?><!DOCTYPE svg PUBLIC "-//W3C//DTD SVG 1.1//EN" "http://www.w3.org/Graphics/SVG/1.1/DTD/svg11.dtd"><svg t="1687529296778" class="icon" viewBox="0 0 1024 1024" version="1.1" xmlns="http://www.w3.org/2000/svg" p-id="2006" width="512" height="512" xmlns:xlink="http://www.w3.org/1999/xlink"><path d="M1024 535.428571q0 32-4 59.428571l-657.714286 0q0 83.428571 62.571429 139.714286t147.142857 56.285714q56.571429 0 106-26.571429t78-74.571429l241.714286 0q-32 90.857143-97.428571 160.571429t-152.857143 107.714286-183.428571 38q-106.857143 0-203.428571-47.428571-130.285714 66.285714-225.142857 66.285714-135.428571 0-135.428571-150.285714 0-65.714286 25.714286-157.142857 9.714286-34.285714 62.285714-130.857143 113.714286-205.714286 271.428571-346.285714-105.142857 45.142857-244 202.285714 36-156.571429 162-256.857143t286.571429-100.285714q17.142857 0 25.714286 0.571429 145.714286-66.857143 247.428571-66.857143 36.571429 0 66.285714 7.428571t54 23.142857 38 43.714286 13.714286 65.714286q0 66.285714-42.857143 163.428571 57.714286 104 57.714286 222.857143zm-40-365.714286q0-47.428571-30.285714-75.428571t-78.285714-28q-61.714286 0-145.142857 40 69.142857 26.857143 127.142857 75.142857t97.428571 111.714286q29.142857-77.142857 29.142857-123.428571zm-910.857143 706.857143q0 49.142857 27.714286 75.714286t76.857143 26.571429q65.714286 0 152-47.428571-69.714286-41.142857-122-104.571429t-78.571429-140q-56 117.142857-56 189.714286zm288-407.428571l416 0q-2.857143-81.142857-64.571429-135.428571t-143.428571-54.285714q-82.285714 0-143.714286 54.285714t-64.285714 135.428571z" p-id="2007" fill="#1296db"></path></svg>